<?xml version="1.0" encoding="UTF-8"?><svg id="_层_2" xmlns="http://www.w3.org/2000/svg" viewBox="0 0 19.62 19.62"><defs><style>.cls-1{fill:none;stroke:#007aff;stroke-miterlimit:10;stroke-width:.85px;}.cls-2{fill:#007aff;}</style></defs><g id="_层_1-2"><path class="cls-1" d="M13.41,1.15c4.79,1.99,7.05,7.48,5.07,12.26-1.99,4.79-7.48,7.05-12.26,5.07C1.43,16.49-.84,11,1.15,6.21,3.13,1.43,8.62-.84,13.41,1.15Z"/><path class="cls-2" d="M12.89,15.6c.18,.25,.53,.24,.75,.04,.13-.12,.14-.32,.02-.45-.12-.13-.32-.14-.45-.02l-.02,.02c-.05,.05-.11,.1-.18,.12-.1,.02-.17,.12-.15,.23,0,.03,.02,.05,.03,.07Zm.74,.04c.1-.09,.19-.19,.27-.29,.12-.15,.09-.36-.05-.48-.15-.12-.36-.1-.48,.05l-.02,.02c-.06,.08-.12,.16-.18,.24-.12,.13-.11,.34,.02,.45,.12,.11,.31,.11,.43,0Zm.27-.29c.09-.11,.18-.24,.25-.36h0c.1-.16,.05-.38-.12-.48s-.38-.05-.48,.12h0c-.06,.12-.13,.22-.19,.32-.1,.15-.06,.37,.09,.47,.15,.1,.34,.07,.45-.07Zm.25-.36c.08-.14,.16-.28,.23-.42,.08-.18,0-.39-.17-.47-.18-.08-.39,0-.47,.17h0c-.06,.13-.12,.25-.19,.37-.1,.17-.04,.38,.13,.48,.16,.09,.37,.04,.47-.12Zm.23-.42c.09-.19,.16-.39,.24-.6,.07-.19-.03-.39-.22-.46-.19-.07-.39,.03-.46,.22h0c-.06,.18-.12,.36-.2,.54-.08,.18,0,.39,.18,.47,.18,.08,.39,0,.47-.17Zm.24-.6c.07-.19,.14-.39,.15-.59,0-.2-.14-.37-.34-.37-.2,0-.37,.14-.37,.34,0,.13-.07,.27-.11,.39-.06,.19,.04,.39,.22,.45,.19,.06,.39-.04,.45-.22Zm.15-.59c0-.15-.02-.3-.07-.44-.05-.17-.23-.27-.4-.21-.13,.04-.22,.15-.23,.29,0,.11-.01,.23-.02,.34,0,.2,.14,.37,.34,.37,.2,0,.37-.14,.37-.34Zm-.7-.39v.02c-.01,.18,.12,.33,.3,.34,.18,.01,.33-.12,.34-.3,0-.04,0-.08-.01-.12-.07-.22-.25-.42-.5-.36-.13,.03-.22,.16-.19,.3,0,.05,.03,.09,.06,.12h0Z"/><path class="cls-2" d="M13.37,16.71c.3,0,.6-.1,.85-.27,.13-.09,.16-.26,.07-.39-.09-.13-.26-.16-.39-.07h-.02c-.19,.16-.4,.3-.61,.43-.08,.05-.1,.15-.06,.22,.03,.05,.09,.08,.15,.08Zm.85-.26c.16-.1,.31-.22,.45-.35,.12-.11,.13-.3,.02-.42-.11-.12-.3-.13-.42-.02h-.01c-.12,.13-.24,.24-.36,.34-.12,.1-.14,.27-.04,.39,.09,.11,.25,.14,.37,.06Zm.45-.35c.15-.14,.29-.29,.42-.44,.11-.13,.09-.33-.04-.44-.13-.11-.33-.09-.44,.04h0c-.11,.15-.22,.28-.34,.41-.12,.12-.11,.31,0,.42,.11,.11,.3,.12,.41,0Zm.42-.44c.13-.16,.25-.33,.36-.5,.09-.15,.05-.35-.1-.44-.15-.09-.35-.05-.44,.1h0c-.1,.16-.2,.31-.31,.45-.1,.14-.08,.33,.06,.44,.13,.1,.32,.08,.43-.05Zm.36-.5c.1-.16,.19-.32,.28-.49,.08-.16,.02-.35-.14-.43-.16-.08-.35-.02-.43,.14-.07,.15-.16,.29-.25,.43-.09,.15-.05,.35,.1,.44,.15,.09,.34,.05,.44-.1Zm.28-.49c.07-.14,.13-.27,.19-.42,.06-.16-.02-.35-.18-.41-.16-.06-.35,.02-.41,.18-.05,.12-.1,.24-.16,.36-.08,.16-.02,.35,.14,.43,.16,.08,.35,.02,.43-.14Zm.19-.42c.1-.25,.11-.52,.08-.77-.02-.15-.15-.25-.3-.23-.12,.01-.21,.1-.23,.22-.03,.19-.08,.38-.15,.56h0c-.06,.16,.02,.35,.18,.41,.16,.06,.35-.02,.41-.18Z"/></g></svg>